<svg xmlns="http://www.w3.org/2000/svg" width="1600" height="900" viewBox="0 0 1600 900">
  <defs>
    <linearGradient id="g" x1="0" y1="0" x2="1" y2="1">
      <stop offset="0" stop-color="#0B2D5C"/>
      <stop offset="0.45" stop-color="#123E75"/>
      <stop offset="1" stop-color="#F5F7FA"/>
    </linearGradient>
    <radialGradient id="r" cx="70%" cy="35%" r="60%">
      <stop offset="0" stop-color="#FFFFFF" stop-opacity="0.75"/>
      <stop offset="1" stop-color="#FFFFFF" stop-opacity="0"/>
    </radialGradient>
  </defs>
  <rect width="1600" height="900" fill="url(#g)"/>
  <rect width="1600" height="900" fill="url(#r)"/>
  <g opacity="0.18" stroke="#FFFFFF" stroke-width="2" fill="none">
    <path d="M170 640 C380 430 560 610 760 360 S1130 270 1430 140"/>
    <path d="M260 710 C520 520 690 620 850 450 S1190 390 1510 230"/>
    <path d="M110 500 C360 310 520 420 720 250 S1050 180 1320 70"/>
  </g>
  <g opacity="0.22" fill="#FFFFFF">
    <circle cx="220" cy="610" r="7"/>
    <circle cx="480" cy="500" r="6"/>
    <circle cx="735" cy="360" r="8"/>
    <circle cx="1040" cy="295" r="6"/>
    <circle cx="1320" cy="170" r="7"/>
  </g>
  <g opacity="0.20">
    <rect x="930" y="170" width="360" height="190" rx="26" fill="#FFFFFF"/>
    <rect x="1020" y="405" width="420" height="230" rx="26" fill="#FFFFFF"/>
    <rect x="760" y="505" width="220" height="150" rx="24" fill="#FFFFFF"/>
  </g>
  <g opacity="0.22" stroke="#0B2D5C" stroke-width="8" fill="none">
    <path d="M1120 230 l50 28 l50-28 v66 c0 62-50 92-50 92 s-50-30-50-92z"/>
    <path d="M1115 285 l35 34 l68-72"/>
  </g>
</svg>
